<svg width="60" height="40" viewBox="0 0 60 40" fill="none" xmlns="http://www.w3.org/2000/svg">
<path fill-rule="evenodd" clip-rule="evenodd" d="M59.9991 27.3672H56.9256C56.6194 27.3672 56.4149 27.3878 56.2435 27.5989C56.0652 27.8052 55.9973 28.1148 55.9973 28.5227C55.9933 28.7333 56.0271 28.9406 56.0935 29.1131C56.1599 29.2855 56.2553 29.4137 56.3653 29.4782C56.5437 29.5893 56.7351 29.6242 57.016 29.6242L57.9295 29.6687C58.8517 29.7099 59.4676 29.9988 59.8434 30.7004C59.9113 30.7988 59.9522 30.9099 60 31.0178V27.3672H59.9991ZM59.9991 35.8303C59.5903 36.9192 58.7916 37.4715 57.7111 37.4715H54.454V34.7193H57.6981C58.02 34.7193 58.2444 34.6415 58.3801 34.4018C58.4437 34.2954 58.4944 34.1658 58.5289 34.0215C58.5633 33.8771 58.5808 33.7212 58.5802 33.5637C58.5837 33.4027 58.5668 33.2424 58.5309 33.0952C58.495 32.948 58.441 32.8177 58.3732 32.7146C58.2514 32.5193 58.0731 32.4289 57.779 32.4289C56.1957 32.3336 54.2209 32.5193 54.2209 28.4576C54.2209 26.5958 54.8707 24.6355 56.6394 24.6355H59.9991V22.0801H56.8786C55.9364 22.0801 55.2518 22.4928 54.7672 23.1292V22.0817H50.1512C49.4126 22.0817 48.5462 22.415 48.1364 23.1292V22.0817H39.8927V23.1292C39.2368 22.269 38.1293 22.0817 37.6186 22.0817H32.1814V23.1292C31.6621 22.215 30.5076 22.0817 29.8038 22.0817H23.7185L22.3266 24.8228L21.0216 22.0817H11.9306V39.9921H20.8502L22.2857 37.2065L23.6367 39.9921L29.1348 40V35.7875H29.6759C30.405 35.8065 31.2654 35.7541 32.0248 35.1573V39.9905H36.5599V35.324H36.7783C37.0575 35.324 37.0854 35.343 37.0854 35.851V39.9905H50.8611C51.7363 39.9905 52.6506 39.5841 53.1569 38.8445V39.9905H57.5267C58.4358 39.9905 59.324 39.7587 59.9991 39.1651V35.8287V35.8303ZM53.2726 30.702C53.6006 31.321 53.7772 32.0987 53.7772 33.4209C53.7772 36.1827 52.829 37.4715 51.1273 37.4715H47.8424V34.7193H51.1143C51.4344 34.7193 51.6606 34.6415 51.8033 34.4018C51.8665 34.2949 51.9168 34.1652 51.9511 34.0209C51.9854 33.8766 52.0029 33.721 52.0025 33.5637C52.0042 33.4033 51.9866 33.2442 51.9509 33.0975C51.9153 32.9508 51.8625 32.8201 51.7963 32.7146C51.6676 32.5193 51.4901 32.4289 51.1961 32.4289C49.6188 32.3336 47.644 32.5193 47.644 28.4576C47.644 26.5958 48.2869 24.6355 50.0547 24.6355H53.4362V27.3672H50.3426C50.0355 27.3672 49.8363 27.3878 49.6667 27.5989C49.4822 27.8068 49.4135 28.1148 49.4135 28.5227C49.4135 29.0068 49.5701 29.3369 49.7824 29.4782C49.9598 29.5909 50.1512 29.6242 50.4383 29.6242L51.3466 29.6687C52.2617 29.7099 52.8907 29.9972 53.2726 30.7004V30.702ZM38.0545 29.9083C37.8292 30.1528 37.5499 30.1734 37.2219 30.1734H35.1732V27.2894H37.2498C37.5499 27.2894 37.8501 27.3021 38.0545 27.5211C38.2737 27.7291 38.4042 28.1275 38.4042 28.6766C38.4042 29.2258 38.2737 29.6687 38.0545 29.9083V29.9083ZM39.0732 31.5067C39.449 31.7575 39.7553 32.2098 39.8997 32.5844C40.138 33.2098 40.172 33.7955 40.1789 34.9272V37.4715H38.486V35.8652C38.486 35.0938 38.5269 33.9494 38.2128 33.3526C37.9666 32.8923 37.5908 32.7828 36.9757 32.7828H35.1741V37.4715H33.4794V24.6339H37.3724C38.2267 24.6339 38.8479 24.7038 39.4021 25.2403C39.9336 25.826 40.2685 26.6275 40.2685 28.091C40.2685 30.1401 39.5169 31.1861 39.0732 31.5067V31.5067ZM41.2046 24.6339H46.8324V27.2894H42.8828V29.6226H46.7367V32.2416H42.8828V34.797L46.8324 34.8081V37.4715H41.2037V24.6339H41.2046ZM29.8256 30.5591H27.6463V27.2894H29.8447C30.4537 27.2894 30.8765 27.7418 30.8765 28.8639C30.8765 29.975 30.4737 30.5591 29.8256 30.5591V30.5591ZM25.9665 36.3049L23.3775 31.075L25.9665 26.0117V36.3049ZM19.28 34.797H15.1338V32.2416H18.8363V29.6226H15.1338V27.2894H19.3617L21.2061 31.0305L19.28 34.797ZM32.6869 28.8639C32.6869 32.4305 31.2253 33.1654 29.7508 33.1654H27.6455V37.4715H24.3683L22.2918 33.2225L20.1343 37.4715H13.453V24.6339H20.2361L22.3109 28.8433L24.4562 24.6339H29.8447C31.1836 24.6339 32.6869 25.3085 32.6869 28.8639ZM5.40765 9.84088L4.25321 4.72521L3.10487 9.84088H5.40765ZM30.8365 7.80445C30.6042 8.05841 30.3302 8.06793 30.0013 8.06793H27.9534V5.21725H30.03C30.3232 5.21725 30.6303 5.24106 30.8295 5.44899C31.0479 5.63628 31.1836 6.03468 31.1836 6.58387C31.1836 7.14416 31.0548 7.59652 30.8356 7.80445H30.8365ZM45.4517 9.84088L44.2842 4.72521L43.1237 9.84088H45.4509H45.4517ZM18.2073 15.3803H16.4787L16.4726 5.32836L14.0272 15.3788H12.5456L10.0932 5.31884V15.3788H6.66473L6.01662 12.517H2.5046L1.8504 15.3788H0.0191393L3.03876 2.54593H5.54423L8.41248 14.6962V2.54593H11.165L13.3721 11.2519L15.3991 2.54593H18.2073V15.3788V15.3803ZM25.0974 15.3803H19.4644V2.54593H25.0982V5.21725H21.1512V7.53145H25.0034V10.1615H21.1512V12.7249H25.0982V15.3788L25.0974 15.3803ZM33.0409 6.00135C33.0409 8.04889 32.2902 9.1044 31.8526 9.42185C32.2223 9.67739 32.5372 10.1298 32.6877 10.5028C32.9252 11.1408 32.9661 11.7122 32.9661 12.8582V15.3788H31.2654L31.2593 13.7598C31.2593 12.9884 31.2993 11.8773 30.9931 11.2599C30.746 10.8091 30.371 10.7107 29.7638 10.7107H27.9526V15.3788H26.2657V2.54593H30.1457C31.007 2.54593 31.642 2.5872 32.1875 3.16019C32.7208 3.73319 33.0401 4.56966 33.0401 6.00135H33.0409ZM35.7404 15.3788H34.0196V2.54593H35.7404V15.3788ZM55.7033 15.3788H53.3135L50.1164 5.7458V15.3803H46.6827L46.0259 12.517H42.5226L41.8858 15.3788H39.9127C39.0932 15.3788 38.0554 15.0486 37.4673 13.9598C36.8748 12.8693 36.566 11.3932 36.566 9.05996C36.566 7.15527 36.7504 5.41724 37.4751 4.04111C38.0206 3.01734 38.874 2.54593 40.0363 2.54593H41.6692V5.29503H40.0711C39.4551 5.29503 39.108 5.46169 38.7731 6.05532C38.486 6.59498 38.2885 7.61716 38.2885 8.96314C38.2885 10.3377 38.4381 11.3281 38.7522 11.9757C39.0114 12.4836 39.483 12.6392 39.9266 12.6392H40.6844L43.062 2.54434H45.5883L48.4435 14.6851V2.54593H51.0116L53.9756 11.4837V2.54593H55.7033V15.3788V15.3788ZM0 17.8993H2.88042L3.53028 15.0486H4.98485L5.63297 17.8993H11.3025V15.72L11.8088 17.9104H14.7518L15.2573 15.6883V17.8977H29.3471L29.341 13.2185H29.6133C29.8047 13.2312 29.8595 13.263 29.8595 13.8375V17.8977H37.1471V16.8089C37.7352 17.3818 38.6487 17.8977 39.8527 17.8977H42.9175L43.5735 15.047H45.0281L45.6701 17.8977H51.5771V15.1899L52.4731 17.8977H57.2066V0H52.521V2.1142L51.865 0H47.0577V2.1142L46.4557 0H39.9614C38.874 0 37.9188 0.27618 37.1471 1.04599V0H32.666V1.04599C32.1745 0.252372 31.5055 0 30.7608 0H14.3899L13.2912 4.62363L12.1637 0H7.00663V2.1142L6.44028 0H2.04179L0 8.51077V17.8993V17.8993Z" fill="#0072CE"/>
</svg>
