<svg width="65" height="40" viewBox="0 0 65 40" fill="none" xmlns="http://www.w3.org/2000/svg">
<path d="M37.1101 20C37.1101 27.9315 30.4675 34.36 22.2738 34.36C14.0801 34.36 7.43839 27.9311 7.43839 20C7.43839 12.0694 14.0802 5.64001 22.2738 5.64001C30.4674 5.64001 37.1101 12.0697 37.1101 20Z" fill="#D9222A"/>
<path d="M42.1913 5.63968C38.3582 5.63968 34.8651 7.04736 32.2322 9.35704C31.6958 9.82816 31.1951 10.336 30.7342 10.8767H33.7316C34.1419 11.3597 34.5197 11.8677 34.8626 12.3977H29.6033C29.287 12.8874 29.0015 13.3952 28.7485 13.9183H35.7169C35.9561 14.4131 36.1658 14.9207 36.3451 15.4386H28.1205C27.9477 15.9374 27.8038 16.445 27.6893 16.9593H36.7757C36.9979 17.9585 37.11 18.9778 37.1098 19.9999C37.1098 21.5947 36.8408 23.1289 36.3449 24.5616H28.1203C28.2992 25.0798 28.5088 25.5875 28.7481 26.0822H35.7167C35.4636 26.6055 35.1779 27.1134 34.8616 27.6033H29.603C29.9458 28.1329 30.3236 28.6406 30.7341 29.123H33.7308C33.2705 29.6647 32.7696 30.1731 32.2324 30.644C34.8654 32.9533 38.3581 34.3603 42.1916 34.3603C50.3853 34.3603 57.0279 27.9314 57.0279 20.0003C57.0279 12.07 50.3853 5.64032 42.1916 5.64032" fill="#EE9F2D"/>
<path d="M55.0498 28.0048C55.0498 27.7489 55.2641 27.5407 55.5289 27.5407C55.7937 27.5407 56.0079 27.7489 56.0079 28.0048C56.0079 28.2607 55.7937 28.4689 55.5289 28.4689C55.2641 28.4689 55.0498 28.2607 55.0498 28.0048ZM55.5289 28.3574C55.73 28.3574 55.8931 28.1995 55.8932 28.0048C55.8932 27.8102 55.7303 27.6526 55.5294 27.6525H55.5289C55.3281 27.6522 55.1652 27.8095 55.1649 28.0038V28.0049C55.1647 28.1995 55.3275 28.3574 55.5285 28.3575C55.5286 28.3574 55.5288 28.3574 55.5289 28.3574V28.3574ZM55.4642 28.2086H55.3661V27.801H55.5437C55.5809 27.801 55.6187 27.801 55.6515 27.8213C55.6857 27.8436 55.7049 27.883 55.7049 27.9236C55.7049 27.9693 55.677 28.0119 55.6319 28.0286L55.7094 28.2086H55.6007L55.5363 28.0472H55.4643L55.4642 28.2086V28.2086ZM55.4642 27.9774H55.5185C55.5389 27.9774 55.5603 27.9791 55.5785 27.9694C55.5947 27.9594 55.603 27.9407 55.603 27.9227C55.6026 27.906 55.5937 27.8906 55.5792 27.8813C55.5621 27.871 55.5349 27.8732 55.5166 27.8732H55.4642V27.9774ZM18.8094 21.5724C18.6403 21.5534 18.566 21.5483 18.4499 21.5483C17.537 21.5483 17.0748 21.8513 17.0748 22.4498C17.0748 22.8186 17.3004 23.0534 17.6523 23.0534C18.3084 23.0534 18.7812 22.4486 18.8094 21.5724V21.5724ZM19.9807 24.2121H18.6462L18.6769 23.598C18.2697 24.0832 17.7267 24.3139 16.9887 24.3139C16.1157 24.3139 15.5172 23.6539 15.5172 22.6956C15.5172 21.2537 16.5583 20.4123 18.3452 20.4123C18.5277 20.4123 18.7619 20.4282 19.0015 20.4579C19.0514 20.2626 19.0646 20.1789 19.0646 20.0738C19.0646 19.6812 18.7839 19.5349 18.0315 19.5349C17.2436 19.5262 16.5937 19.7166 16.3268 19.8015C16.3437 19.7032 16.55 18.4688 16.55 18.4688C17.3527 18.2411 17.882 18.1554 18.4778 18.1554C19.8606 18.1554 20.5932 18.7565 20.5918 19.8924C20.5946 20.1968 20.5425 20.5724 20.4613 21.0661C20.3216 21.9248 20.0216 23.7638 19.9807 24.2121V24.2121ZM14.8434 24.2121H13.2328L14.1553 18.6123L12.0953 24.2121H10.9978L10.8621 18.6443L9.89238 24.2121H8.3847L9.64402 16.9276H11.9599L12.1004 21.005L13.5131 16.9276H16.089L14.8434 24.2121ZM44.1812 21.5724C44.0128 21.5534 43.9381 21.5483 43.8223 21.5483C42.9098 21.5483 42.4476 21.8513 42.4476 22.4498C42.4476 22.8186 42.6729 23.0534 43.0247 23.0534C43.6809 23.0534 44.154 22.4486 44.1812 21.5724V21.5724ZM45.3535 24.2121H44.019L44.0493 23.598C43.6422 24.0832 43.0988 24.3139 42.3614 24.3139C41.4883 24.3139 40.8903 23.6539 40.8903 22.6956C40.8903 21.2537 41.9307 20.4123 43.718 20.4123C43.9004 20.4123 44.1343 20.4282 44.3737 20.4579C44.4236 20.2626 44.4367 20.1789 44.4367 20.0738C44.4367 19.6812 44.1564 19.5349 43.404 19.5349C42.6161 19.5262 41.967 19.7166 41.699 19.8015C41.7159 19.7032 41.9229 18.4688 41.9229 18.4688C42.7256 18.2411 43.2545 18.1554 43.8497 18.1554C45.2332 18.1554 45.9658 18.7565 45.9644 19.8924C45.9671 20.1968 45.9151 20.5724 45.8339 21.0661C45.6947 21.9248 45.3942 23.7638 45.3535 24.2121V24.2121ZM27.1385 24.1221C26.6978 24.2564 26.3541 24.3139 25.9814 24.3139C25.1581 24.3139 24.7087 23.8559 24.7087 23.0126C24.697 22.7509 24.8272 22.0622 24.9295 21.4336C25.0225 20.8802 25.6278 17.3913 25.6278 17.3913H27.2288L27.0417 18.2879H28.0087L27.7903 19.7116H26.8198C26.6339 20.8382 26.3691 22.2416 26.366 22.4276C26.366 22.7329 26.5344 22.8662 26.9174 22.8662C27.1009 22.8662 27.243 22.8481 27.3516 22.8102L27.1385 24.1221M32.0472 24.0741C31.4973 24.2368 30.9666 24.3154 30.4042 24.3141C28.6121 24.3124 27.6779 23.4064 27.6779 21.6715C27.6779 19.6465 28.8664 18.1558 30.4796 18.1558C31.7996 18.1558 32.6426 18.9904 32.6426 20.2994C32.6426 20.7338 32.5848 21.1578 32.4452 21.7564H29.2571C29.1493 22.6157 29.7175 22.9738 30.6487 22.9738C31.2219 22.9738 31.7387 22.8594 32.3134 22.6007L32.0472 24.0741V24.0741ZM31.1473 20.5621C31.1562 20.4386 31.3172 19.5047 30.4024 19.5047C29.8924 19.5047 29.5277 19.881 29.3792 20.5621H31.1473V20.5621ZM20.9468 20.1607C20.9468 20.9101 21.3222 21.4268 22.1735 21.8148C22.8258 22.1115 22.9266 22.1996 22.9266 22.4684C22.9266 22.8378 22.6391 23.0045 22.0017 23.0045C21.5212 23.0045 21.0743 22.9318 20.5588 22.7707C20.5588 22.7707 20.347 24.0764 20.3373 24.1389C20.7034 24.2162 21.0299 24.2878 22.0133 24.3141C23.7128 24.3141 24.4977 23.6878 24.4977 22.3341C24.4977 21.5201 24.169 21.0424 23.3623 20.6834C22.687 20.3834 22.6095 20.3164 22.6095 20.0398C22.6095 19.7194 22.8771 19.5561 23.3978 19.5561C23.7139 19.5561 24.1457 19.5887 24.5548 19.645L24.7842 18.271C24.3672 18.207 23.7349 18.1557 23.3668 18.1557C21.5649 18.1558 20.9413 19.0667 20.9468 20.1607M39.8808 18.3114C40.3281 18.3114 40.7452 18.4251 41.3199 18.7051L41.5834 17.1241C41.3475 17.0344 40.5169 16.5081 39.8133 16.5081C38.7355 16.5081 37.8244 17.0258 37.1834 17.8801C36.2487 17.5804 35.8645 18.1861 35.3935 18.7894L34.975 18.8838C35.0067 18.6851 35.0353 18.4878 35.0256 18.2881H33.5465C33.3445 20.1214 32.9863 21.9783 32.7059 23.8141L32.6329 24.2122H34.2442C34.5131 22.5207 34.6605 21.4378 34.7501 20.7048L35.3568 20.3781C35.4475 20.0518 35.7311 19.9414 36.3004 19.9548C36.2239 20.3554 36.1856 20.7621 36.1861 21.1695C36.1861 23.1075 37.2663 24.3142 39.0003 24.3142C39.4469 24.3142 39.8302 24.2572 40.4236 24.1015L40.7071 22.4408C40.1733 22.6953 39.7352 22.815 39.3385 22.815C38.4021 22.815 37.8356 22.1459 37.8356 21.0402C37.8356 19.4361 38.6783 18.3114 39.8808 18.3114" fill="black"/>
<path d="M15.3074 23.7792H13.6965L14.6197 18.1802L12.5596 23.7792H11.4618L11.3261 18.2122L10.3564 23.7792H8.84879L10.1081 16.4958H12.424L12.4891 21.0048L14.0515 16.4958H16.5531L15.3074 23.7792Z" fill="white"/>
<path d="M53.5167 16.928L53.1596 19.0327C52.7191 18.4717 52.246 18.0657 51.6213 18.0657C50.8086 18.0657 50.0689 18.6621 49.5847 19.5397C48.9104 19.4043 48.213 19.1746 48.213 19.1746L48.2126 19.18C48.267 18.6893 48.2888 18.39 48.2839 18.2883H46.8045C46.603 20.1217 46.2449 21.9786 45.965 23.8143L45.8912 24.2124H47.5022C47.7198 22.8447 47.8863 21.7091 48.0091 20.8083C48.5594 20.327 48.8349 19.907 49.391 19.935C49.1448 20.5114 49.0005 21.1753 49.0005 21.8564C49.0005 23.3374 49.7746 24.3144 50.9455 24.3144C51.5358 24.3144 51.9886 24.1174 52.4305 23.6607L52.355 24.2114H53.8786L55.1053 16.9281L53.5167 16.928V16.928ZM51.5025 22.8433C50.9542 22.8433 50.6774 22.4506 50.6774 21.6756C50.6774 20.5112 51.1957 19.6856 51.9264 19.6856C52.4797 19.6856 52.7793 20.0939 52.7793 20.8463C52.7794 22.0206 52.2528 22.8433 51.5025 22.8433V22.8433Z" fill="black"/>
<path d="M19.2729 21.1408C19.1041 21.1219 19.0294 21.1169 18.9137 21.1169C18.0007 21.1169 17.5389 21.4198 17.5389 22.0182C17.5389 22.3865 17.7644 22.6219 18.1157 22.6219C18.7725 22.6218 19.2453 22.0172 19.2729 21.1408V21.1408ZM20.4446 23.7795H19.1102L19.1405 23.1665C18.7338 23.6508 18.1901 23.8825 17.4528 23.8825C16.5794 23.8825 15.9812 23.2225 15.9812 22.2642C15.9812 20.8216 17.0219 19.9808 18.8092 19.9808C18.9917 19.9808 19.2259 19.9968 19.4653 20.0265C19.5152 19.8312 19.5283 19.7475 19.5283 19.6418C19.5283 19.2491 19.248 19.1035 18.4955 19.1035C17.7073 19.0949 17.0578 19.2852 16.7906 19.3692C16.8074 19.2712 17.0137 18.0382 17.0137 18.0382C17.8161 17.8096 18.346 17.7239 18.9411 17.7239C20.3244 17.7239 21.0572 18.3253 21.0559 19.4602C21.0583 19.7659 21.006 20.1413 20.925 20.6342C20.7856 21.4922 20.4854 23.3322 20.4446 23.7795V23.7795ZM42.0474 16.6922L41.7836 18.2735C41.2092 17.9938 40.7919 17.8799 40.345 17.8799C39.1424 17.8799 38.2994 19.0046 38.2994 20.6084C38.2994 21.7141 38.8661 22.3829 39.8023 22.3829C40.199 22.3829 40.6367 22.2635 41.1705 22.0089L40.8877 23.6689C40.294 23.8254 39.9112 23.8825 39.4641 23.8825C37.7304 23.8825 36.6498 22.6758 36.6498 20.7378C36.6498 18.1338 38.1424 16.3138 40.2771 16.3138C40.9802 16.3138 41.8112 16.6025 42.0474 16.6922M44.6461 21.1408C44.4774 21.1219 44.403 21.1169 44.2868 21.1169C43.3743 21.1169 42.9121 21.4198 42.9121 22.0182C42.9121 22.3865 43.1377 22.6219 43.4893 22.6219C44.1453 22.6218 44.6185 22.0172 44.6461 21.1408V21.1408ZM45.8179 23.7795H44.4831L44.5138 23.1665C44.1067 23.6508 43.5633 23.8825 42.826 23.8825C41.953 23.8825 41.3545 23.2225 41.3545 22.2642C41.3545 20.8216 42.3956 19.9808 44.1821 19.9808C44.365 19.9808 44.5988 19.9968 44.8384 20.0265C44.8881 19.8312 44.9015 19.7475 44.9015 19.6418C44.9015 19.2491 44.6211 19.1035 43.8688 19.1035C43.0809 19.0949 42.431 19.2852 42.1637 19.3692C42.1806 19.2712 42.3872 18.0382 42.3872 18.0382C43.1897 17.8096 43.7192 17.7239 44.3143 17.7239C45.6979 17.7239 46.4304 18.3253 46.4287 19.4602C46.4314 19.7659 46.3794 20.1413 46.2982 20.6342C46.1592 21.4922 45.8582 23.3322 45.8179 23.7795ZM27.6029 23.6898C27.1618 23.8242 26.8181 23.8825 26.4459 23.8825C25.6225 23.8825 25.1731 23.4244 25.1731 22.581C25.1617 22.3187 25.292 21.6306 25.3942 21.0022C25.4868 20.4481 26.0922 16.9594 26.0922 16.9594H27.6929L27.5062 17.8564H28.3278L28.1091 19.2794H27.2847C27.0987 20.4068 26.8331 21.809 26.8304 21.9954C26.8304 22.3018 26.9991 22.434 27.3818 22.434C27.5653 22.434 27.7072 22.4167 27.816 22.3787L27.6029 23.6898M32.5115 23.6425C31.9619 23.8051 31.4306 23.8834 30.8686 23.8825C29.0763 23.8808 28.1422 22.9748 28.1422 21.2398C28.1422 19.2142 29.3306 17.7238 30.9439 17.7238C32.2639 17.7238 33.1069 18.5582 33.1069 19.8678C33.1069 20.3026 33.0491 20.7265 32.9099 21.3248H29.7218C29.6139 22.1841 30.1821 22.5426 31.1134 22.5426C31.6861 22.5426 32.2033 22.4278 32.7777 22.1684L32.5115 23.6425V23.6425ZM31.6114 20.1295C31.621 20.0065 31.7817 19.0722 30.8665 19.0722C30.3568 19.0722 29.9921 19.4495 29.8437 20.1295H31.6114ZM21.4109 19.7291C21.4109 20.4785 21.7863 20.9946 22.6376 21.3831C23.2898 21.6798 23.3907 21.7681 23.3907 22.0369C23.3907 22.4062 23.1028 22.5728 22.466 22.5728C21.9853 22.5728 21.5383 22.5002 21.0224 22.3391C21.0224 22.3391 20.8113 23.6448 20.8016 23.7072C21.167 23.7846 21.4938 23.8552 22.4773 23.8825C24.1771 23.8825 24.9616 23.2562 24.9616 21.9028C24.9616 21.0884 24.6334 20.6108 23.8263 20.2518C23.1513 19.9511 23.0731 19.8851 23.0731 19.6082C23.0731 19.2882 23.3414 19.1234 23.8618 19.1234C24.1776 19.1234 24.6094 19.1571 25.0192 19.2134L25.2482 17.8391C24.8315 17.7751 24.1992 17.7238 23.8311 17.7238C22.029 17.7238 21.4057 18.6342 21.4109 19.7291M54.3423 23.7795H52.8184L52.8942 23.2281C52.4523 23.6854 51.9995 23.8825 51.4092 23.8825C50.2384 23.8825 49.4646 22.9054 49.4646 21.4244C49.4646 19.454 50.6647 17.793 52.0852 17.793C52.71 17.793 53.1827 18.04 53.6228 18.6007L53.9803 16.4961H55.5689L54.3423 23.7795V23.7795ZM51.9665 22.4108C52.7165 22.4108 53.2434 21.5882 53.2434 20.4146C53.2434 19.6622 52.9435 19.2538 52.39 19.2538C51.6597 19.2538 51.1408 20.079 51.1408 21.2438C51.1407 22.0187 51.4183 22.4108 51.9665 22.4108ZM47.2685 17.8565C47.0668 19.6898 46.7088 21.5469 46.4287 23.3815L46.3549 23.7796H47.9658C48.5421 20.1576 48.6814 19.4502 49.5848 19.5389C49.7287 18.7975 49.9965 18.1482 50.1963 17.8206C49.5216 17.6846 49.1449 18.0536 48.6518 18.7546C48.6907 18.4515 48.7619 18.1572 48.7478 17.8566L47.2685 17.8565M34.01 17.8565C33.8079 19.6898 33.4498 21.5469 33.1697 23.3815L33.0964 23.7796H34.708C35.2835 20.1576 35.4226 19.4502 36.3254 19.5389C36.4701 18.7975 36.7379 18.1482 36.937 17.8206C36.263 17.6846 35.8859 18.0536 35.3932 18.7546C35.4321 18.4515 35.5026 18.1572 35.4892 17.8566L34.01 17.8565M55.0499 23.3158C55.0496 23.0598 55.2637 22.8522 55.528 22.8518H55.529C55.7932 22.8515 56.0077 23.0587 56.008 23.3145V23.3158C56.0079 23.5718 55.7935 23.7794 55.529 23.7795C55.2644 23.7794 55.05 23.5718 55.0499 23.3158V23.3158ZM55.529 23.6682C55.7299 23.6683 55.8928 23.5106 55.8929 23.3162V23.3159C55.8931 23.1213 55.7302 22.9634 55.5293 22.9633H55.529C55.3277 22.9634 55.1647 23.1212 55.1646 23.3159C55.1648 23.5105 55.3279 23.6682 55.529 23.6682ZM55.4642 23.5185H55.366V23.1119H55.5439C55.5808 23.1119 55.619 23.1126 55.651 23.1322C55.6855 23.1549 55.7051 23.1936 55.7051 23.2342C55.7051 23.2802 55.6772 23.3231 55.6317 23.3395L55.7095 23.5184H55.6004L55.536 23.3577H55.4641L55.4642 23.5185ZM55.4642 23.2882H55.5181C55.5385 23.2882 55.5605 23.2897 55.5784 23.2802C55.5946 23.2702 55.6028 23.2513 55.6028 23.2331C55.6021 23.2163 55.5934 23.2008 55.5791 23.1913C55.5623 23.1819 55.5343 23.1846 55.5161 23.1846H55.4641L55.4642 23.2882V23.2882Z" fill="white"/>
</svg>
