<svg width="60" height="40" viewBox="0 0 60 40" fill="none" xmlns="http://www.w3.org/2000/svg">
<path d="M22.5538 27.8984L25.1199 12.2376H29.2244L26.6564 27.8984H22.5538V27.8984ZM41.4854 12.5752C40.6724 12.2579 39.3981 11.9174 37.8068 11.9174C33.751 11.9174 30.8943 14.0415 30.8698 17.0858C30.847 19.3361 32.9095 20.5915 34.4663 21.3406C36.0641 22.1084 36.6011 22.5979 36.5934 23.2832C36.5832 24.3331 35.3175 24.8124 34.1377 24.8124C32.495 24.8124 31.6222 24.575 30.2742 23.9906L29.7452 23.7417L29.1692 27.2474C30.1279 27.6848 31.9006 28.0634 33.7414 28.0831C38.056 28.0831 40.8569 25.9832 40.8888 22.7323C40.9041 20.9507 39.8106 19.595 37.4425 18.4772C36.0079 17.7527 35.1293 17.2693 35.1386 16.5357C35.1386 15.8847 35.8823 15.1887 37.4894 15.1887C38.8314 15.167 39.8038 15.4714 40.5614 15.7887L40.9292 15.9694L41.4854 12.5752M52.0477 12.2374H48.8762C47.8937 12.2374 47.1583 12.5163 46.7269 13.5361L40.6312 27.8881H44.9412C44.9412 27.8881 45.6458 25.9584 45.8052 25.5347C46.2762 25.5347 50.4632 25.5414 51.0618 25.5414C51.1845 26.0897 51.5612 27.8881 51.5612 27.8881H55.3698L52.0477 12.2369V12.2374ZM47.0156 22.3502C47.3552 21.4479 48.651 17.9723 48.651 17.9723C48.6268 18.0139 48.988 17.0655 49.1952 16.4775L49.4725 17.8278C49.4725 17.8278 50.2585 21.5661 50.4228 22.3499H47.0156V22.3502V22.3502ZM19.0695 12.2374L15.0511 22.9174L14.623 20.7471C13.8748 18.2451 11.5442 15.5345 8.93854 14.1775L12.6129 27.8735L16.9556 27.8684L23.4175 12.2372L19.0695 12.2371" fill="#0E4595"/>
<path d="M11.3015 12.2368H4.683L4.63054 12.5626C9.77969 13.8589 13.1867 16.9917 14.6013 20.7562L13.1622 13.5594C12.9138 12.5677 12.1932 12.2717 11.3017 12.2372" fill="#F2AE14"/>
</svg>
